<svg xmlns="http://www.w3.org/2000/svg" width="26.319" height="27.281" viewBox="0 0 26.319 27.281">
  <g id="组_174" data-name="组 174" transform="translate(0)">
    <path id="路径_790" data-name="路径 790" d="M2.774,0S5.548,2.615,5.548,5.842s-2.774,5.842-2.774,5.842S0,9.068,0,5.842,2.774,0,2.774,0Z" transform="translate(10.387 0)" fill="#fff"/>
    <path id="路径_793" data-name="路径 793" d="M2.774,0S5.548,2.615,5.548,5.842s-2.774,5.842-2.774,5.842S0,9.068,0,5.842,2.774,0,2.774,0Z" transform="translate(10.387 15.598)" fill="#fff"/>
    <path id="路径_791" data-name="路径 791" d="M5.842,0c3.226,0,5.842,2.774,5.842,2.774S9.068,5.548,5.842,5.548,0,2.774,0,2.774,2.615,0,5.842,0Z" transform="translate(13.426 10.242) rotate(-29.951)" fill="#fff"/>
    <path id="路径_794" data-name="路径 794" d="M5.842,0c3.226,0,5.842,2.774,5.842,2.774S9.068,5.548,5.842,5.548,0,2.774,0,2.774,2.615,0,5.842,0Z" transform="translate(0.003 18.059) rotate(-29.951)" fill="#fff"/>
    <path id="路径_795" data-name="路径 795" d="M2.774,0S5.548,2.615,5.548,5.842s-2.774,5.842-2.774,5.842S0,9.068,0,5.842,2.774,0,2.774,0Z" transform="translate(0 9.223) rotate(-60.049)" fill="#fff"/>
    <path id="路径_792" data-name="路径 792" d="M2.774,0S5.548,2.615,5.548,5.842s-2.774,5.842-2.774,5.842S0,9.068,0,5.842,2.774,0,2.774,0Z" transform="translate(13.424 17.038) rotate(-60.049)" fill="#fff"/>
  </g>
</svg>
